<svg width="109" height="97" viewBox="0 0 109 97" fill="none" xmlns="http://www.w3.org/2000/svg">
<g id="file-tree">
<path id="Vector" fill-rule="evenodd" clip-rule="evenodd" d="M56.7708 44.4583H74.9375V48.4999H56.7708V44.4583Z" fill="#333333"/>
<path id="Vector_2" fill-rule="evenodd" clip-rule="evenodd" d="M43.1458 16.1667H34.0625V12.125H43.1458C51.925 12.125 59.0417 18.4581 59.0417 26.2708V70.7292C59.0417 76.3097 64.1248 80.8333 70.3958 80.8333H74.9375V84.875H70.3958C61.6165 84.875 54.5 78.5419 54.5 70.7292V26.2708C54.5 20.6903 49.4167 16.1667 43.1458 16.1667Z" fill="#333333"/>
<path id="Vector_3" fill-rule="evenodd" clip-rule="evenodd" d="M20.4375 4.04167C14.1668 4.04167 9.08335 8.56546 9.08335 14.1458C9.08335 19.7262 14.1668 24.25 20.4375 24.25C26.7083 24.25 31.7917 19.7262 31.7917 14.1458C31.7917 8.56546 26.7083 4.04167 20.4375 4.04167ZM4.54169 14.1458C4.54169 6.3333 11.6585 0 20.4375 0C29.2165 0 36.3334 6.3333 36.3334 14.1458C36.3334 21.9584 29.2165 28.2917 20.4375 28.2917C11.6585 28.2917 4.54169 21.9584 4.54169 14.1458Z" fill="#333333"/>
<path id="Vector_4" fill-rule="evenodd" clip-rule="evenodd" d="M88.5625 72.7499C82.2918 72.7499 77.2084 77.2737 77.2084 82.8541C77.2084 88.4345 82.2918 92.9583 88.5625 92.9583C94.8333 92.9583 99.9167 88.4345 99.9167 82.8541C99.9167 77.2737 94.8333 72.7499 88.5625 72.7499ZM72.6667 82.8541C72.6667 75.0416 79.7835 68.7083 88.5625 68.7083C97.3415 68.7083 104.458 75.0416 104.458 82.8541C104.458 90.6666 97.3415 96.9999 88.5625 96.9999C79.7835 96.9999 72.6667 90.6666 72.6667 82.8541Z" fill="#333333"/>
<path id="Vector_5" fill-rule="evenodd" clip-rule="evenodd" d="M88.5625 36.3749C82.2918 36.3749 77.2084 40.8987 77.2084 46.4791C77.2084 52.0595 82.2918 56.5833 88.5625 56.5833C94.8333 56.5833 99.9167 52.0595 99.9167 46.4791C99.9167 40.8987 94.8333 36.3749 88.5625 36.3749ZM72.6667 46.4791C72.6667 38.6666 79.7835 32.3333 88.5625 32.3333C97.3415 32.3333 104.458 38.6666 104.458 46.4791C104.458 54.2916 97.3415 60.6249 88.5625 60.6249C79.7835 60.6249 72.6667 54.2916 72.6667 46.4791Z" fill="#333333"/>
</g>
</svg>
